# xmcd
#
# Track frame offsets: 
#        150
#        26501
#        45056
#        63469
#        78036
#
# Disc length: 1411 seconds
#
# Revision: 0
# Processed by: cddbd v1.5.2PL0 Copyright (c) Steve Scherf et al.
# Submitted via: ExactAudioCopy v0.99pb4
#
DISCID=2a058105
DTITLE=Blue Coast Records - Blue Coast Collection CD
DYEAR=2007
DGENRE=Blues
TTITLE0=Looking For A Home
TTITLE1=Slow Day
TTITLE2=Norwegian Wood
TTITLE3=Smoke Gets In Your Eyes
TTITLE4=On The Moon
EXTD=
EXTT0=
EXTT1=
EXTT2=
EXTT3=
EXTT4=
PLAYORDER=
